PathFileType	4	(X/Y/Z)	E:\Qualisys_Data\Carbon_Farble_Plate\Data\Amateur_Runner\S14\T3\S14T3V13_c3d.trc
DataRate	CameraRate	NumFrames	NumMarkers	Units	OrigDataRate	OrigDataStartFrame	OrigNumFrames
200.000000	200.000000	4	39	mm	200.000000	84	336
Frame#	Time	LSHO			RSHO			LICST			RICST			LASIS			LHEEL			RASIS			LTROC			RTROC			SACR			LTH1			LSK4			LTH2			LTH3			RHM5			LSK2			LTH4			RTH1			LTOE			RTH2			RTH3			RTH4			LLEP			RLEP			LSK1			LSK3			RSK1			LHM5			RSK2			LFT1			RSK3			RSK4			LLME			RLME			RTOE			RHEEL			RFT1			RFT2			LFT2			
		X1	Y1	Z1	X2	Y2	Z2	X3	Y3	Z3	X4	Y4	Z4	X5	Y5	Z5	X6	Y6	Z6	X7	Y7	Z7	X8	Y8	Z8	X9	Y9	Z9	X10	Y10	Z10	X11	Y11	Z11	X12	Y12	Z12	X13	Y13	Z13	X14	Y14	Z14	X15	Y15	Z15	X16	Y16	Z16	X17	Y17	Z17	X18	Y18	Z18	X19	Y19	Z19	X20	Y20	Z20	X21	Y21	Z21	X22	Y22	Z22	X23	Y23	Z23	X24	Y24	Z24	X25	Y25	Z25	X26	Y26	Z26	X27	Y27	Z27	X28	Y28	Z28	X29	Y29	Z29	X30	Y30	Z30	X31	Y31	Z31	X32	Y32	Z32	X33	Y33	Z33	X34	Y34	Z34	X35	Y35	Z35	X36	Y36	Z36	X37	Y37	Z37	X38	Y38	Z38	X39	Y39	Z39	

85	0.42	-1507.002807617188	1475.900390625	-468.7402954101562	-1414.152465820312	1457.910034179688	-184.5136566162109	-1534.841430664062	1028.96435546875	-447.6286315917969	-1491.924438476562	1021.126037597656	-177.1496887207031	-1494.04931640625	976.9199829101562	-427.3843078613281	-1534.068237304688	161.0361633300781	-350.780517578125	-1476.40185546875	974.5400390625	-198.3322601318359	-1604.426147460938	910.5670776367188	-476.8980102539062	-1634.595458984375	918.2060546875	-135.9673156738281	-1656.1923828125	1027.904052734375	-309.2357177734375	-1433.87841796875	720.7570190429688	-459.3222351074219	-1475.56640625	366.6692810058594	-423.5062255859375	-1499.699951171875	681.7166748046875	-442.7227478027344	-1377.830932617188	641.1332397460938	-435.5885009765625	-1969.696411132812	107.2988357543945	-165.7649993896484	-1455.016723632812	462.8591003417969	-439.0614013671875	-1446.595092773438	601.2933349609375	-427.854736328125	-1587.854125976562	671.4865112304688	-150.4965362548828	-1272.419555664062	124.2625427246094	-370.4095458984375	-1658.10986328125	701.0240478515625	-139.4580383300781	-1623.186645507812	581.3777465820312	-177.3196868896484	-1700.5947265625	611.3036499023438	-159.9523773193359	-1395.246826171875	549.9555053710938	-439.4553527832031	-1709.031372070312	537.8158569335938	-167.8825836181641	-1374.996704101562	447.9561462402344	-433.138916015625	-1396.883056640625	348.6902770996094	-420.1113586425781	-1770.821044921875	427.6343994140625	-167.8812866210938	-1342.272338867188	117.9401931762695	-432.8379821777344	-1837.6923828125	481.0841674804688	-163.598388671875	-1518.1328125	130.1458129882812	-323.3096923828125	-1839.485717773438	351.4606628417969	-177.9105834960938	-1896.872314453125	405.8348693847656	-176.3339080810547	-1470.41552734375	184.1584320068359	-406.7680358886719	-1989.987548828125	252.2936553955078	-199.4654998779297	-1916.882934570312	57.08790969848633	-228.8761138916016	-2033.949584960938	283.2150573730469	-254.4064788818359	-2049.4931640625	258.6315307617188	-284.0263061523438	-2056.024169921875	273.9333190917969	-232.678955078125	-1533.428344726562	130.3440856933594	-378.851806640625
86	0.425	-1491.261596679688	1477.195190429688	-469.549072265625	-1397.390502929688	1459.476806640625	-185.9956665039062	-1519.426147460938	1029.942626953125	-447.8201293945312	-1474.938842773438	1022.275695800781	-177.6872863769531	-1477.724853515625	978.0266723632812	-427.475830078125	-1502.965698242188	153.6607971191406	-350.3522033691406	-1459.564208984375	975.8804321289062	-198.6847686767578	-1588.773315429688	911.9508666992188	-477.3146362304688	-1618.439331054688	920.52001953125	-135.7813873291016	-1639.0703125	1029.562744140625	-309.6265563964844	-1420.671997070312	719.91357421875	-458.57275390625	-1454.262451171875	362.239990234375	-423.2229919433594	-1486.162109375	681.8965454101562	-441.5177612304688	-1364.911987304688	640.5629272460938	-435.9951477050781	-1964.298461914062	109.8081970214844	-165.654541015625	-1437.398681640625	459.0431823730469	-438.7702941894531	-1433.5927734375	600.5910034179688	-427.3528747558594	-1574.394653320312	673.5975952148438	-150.56787109375	-1240.091674804688	128.8400726318359	-369.4836120605469	-1644.483032226562	703.2069702148438	-139.4431915283203	-1610.900268554688	583.8890380859375	-176.6966400146484	-1686.517333984375	614.8468627929688	-159.5562438964844	-1381.4638671875	548.3903198242188	-438.7095947265625	-1696.857666015625	541.1921997070312	-167.6771087646484	-1357.027587890625	447.3677368164062	-432.8524780273438	-1374.784790039062	347.7171936035156	-420.0974426269531	-1759.381103515625	431.7483215332031	-167.1779174804688	-1310.37841796875	118.7758483886719	-432.1380615234375	-1825.828369140625	484.9317016601562	-163.3716735839844	-1487.827758789062	123.3254776000977	-323.0620727539062	-1828.734130859375	354.9053955078125	-177.3204803466797	-1884.892456054688	409.8562927246094	-175.7706756591797	-1441.324462890625	179.2947692871094	-406.153564453125	-1977.8037109375	256.428955078125	-197.9493255615234	-1913.700073242188	55.71265029907227	-228.8857879638672	-2019.675537109375	289.5121459960938	-253.7620086669922	-2036.774780273438	265.606201171875	-283.2284851074219	-2042.80126953125	281.0506591796875	-231.7368469238281	-1502.071411132812	123.0413589477539	-377.9738464355469
87	0.43	-1475.323608398438	1478.511596679688	-470.3799133300781	-1380.641235351562	1461.099243164062	-187.5784454345703	-1502.83935546875	1031.141235351562	-447.9330139160156	-1458.007690429688	1023.364868164062	-177.7599029541016	-1461.16357421875	978.7975463867188	-427.5098571777344	-1472.435791015625	146.1935119628906	-349.3773803710938	-1442.999145507812	977.0131225585938	-198.8193817138672	-1572.519287109375	912.8816528320312	-476.5369567871094	-1602.356811523438	922.3412475585938	-135.900146484375	-1622.059692382812	1030.471069335938	-309.260498046875	-1407.512573242188	718.9893188476562	-458.4818420410156	-1432.760620117188	357.6209411621094	-422.7092590332031	-1472.572265625	681.5001831054688	-440.5946044921875	-1351.536254882812	638.6682739257812	-435.5654602050781	-1958.86083984375	112.5653228759766	-165.9964141845703	-1419.80712890625	455.7638549804688	-438.3397827148438	-1421.35400390625	600.4175415039062	-426.8353881835938	-1560.472412109375	675.2086181640625	-150.1550903320312	-1209.091186523438	133.5733032226562	-369.1722717285156	-1630.40234375	706.2857666015625	-139.9658050537109	-1597.675048828125	585.8606567382812	-175.9539642333984	-1674.682006835938	617.4501953125	-159.9341125488281	-1366.806640625	546.6172485351562	-438.1066284179688	-1683.338012695312	544.2673950195312	-167.2124786376953	-1339.291137695312	447.1955261230469	-432.2534790039062	-1352.575805664062	346.4271240234375	-419.3202209472656	-1746.775634765625	435.3651123046875	-166.6959228515625	-1279.253540039062	120.3260803222656	-431.9352416992188	-1813.439819335938	488.5159912109375	-163.2266845703125	-1458.957153320312	118.2826843261719	-321.8639831542969	-1816.405151367188	358.0742492675781	-175.8660125732422	-1873.600708007812	413.7911376953125	-175.7957000732422	-1412.3564453125	175.0534057617188	-405.9708557128906	-1965.493774414062	260.6603698730469	-197.2327880859375	-1911.353637695312	54.62207794189453	-229.4785003662109	-2005.974609375	295.1646728515625	-252.8101043701172	-2023.672607421875	272.3081359863281	-282.6707153320312	-2028.92626953125	287.5932312011719	-231.8622131347656	-1470.874267578125	115.732795715332	-377.3404846191406
88	0.435	-1459.646118164062	1479.396728515625	-471.1849365234375	-1363.645263671875	1461.919311523438	-189.1960296630859	-1486.57275390625	1031.59375	-447.8418579101562	-1441.184448242188	1024.223876953125	-178.4794464111328	-1444.476318359375	979.1990966796876	-427.627685546875	-1441.759155273438	139.4623565673828	-348.2343139648438	-1426.361572265625	977.7752685546876	-198.5175628662109	-1556.697387695312	913.3111572265624	-476.4323425292969	-1586.47119140625	923.91845703125	-135.9330444335938	-1605.489135742188	1031.874145507812	-309.5171508789062	-1394.534912109375	717.6959838867188	-458.2311401367188	-1411.533325195312	353.4778137207031	-422.2579040527344	-1459.821166992188	681.145751953125	-440.154541015625	-1339.482788085938	637.08447265625	-435.4741821289062	-1953.725708007812	115.0400466918945	-166.2962036132812	-1402.093872070312	451.7437744140625	-437.64990234375	-1408.884521484375	598.8080444335938	-426.243896484375	-1546.43896484375	676.9872436523438	-149.9273376464844	-1178.663696289062	138.3519439697266	-368.6795654296875	-1616.221801757812	708.2210083007812	-139.6533355712891	-1584.119384765625	588.052490234375	-175.7651519775391	-1660.284301757812	620.0174560546875	-159.6423645019531	-1352.932006835938	545.1583251953125	-437.4219665527344	-1671.360961914062	546.575439453125	-166.9241943359375	-1320.36767578125	446.1062622070312	-431.2185363769531	-1330.673217773438	345.4281616210938	-419.1447143554688	-1734.071411132812	438.5456237792969	-166.3101348876953	-1247.640380859375	121.3415451049805	-430.7462158203125	-1800.986694335938	492.1104736328125	-163.3929901123047	-1427.306274414062	110.4048385620117	-322.1307983398438	-1804.758666992188	361.7005004882812	-175.5414276123047	-1861.60400390625	417.5678100585938	-175.4754180908203	-1382.795043945312	171.2139434814453	-404.4668884277344	-1951.462280273438	265.1115417480469	-194.8274078369141	-1908.7412109375	54.91712951660156	-229.8193054199219	-1990.46484375	301.0333251953125	-251.0250091552734	-2010.053466796875	278.8133544921875	-281.7529296875	-2015.342041015625	293.8504333496094	-230.54296875	-1438.613647460938	109.9376907348633	-375.9013977050781
